<?xml version="1.0" encoding="utf-8"?>
<!-- Generator: Adobe Illustrator 17.1.0, SVG Export Plug-In . SVG Version: 6.00 Build 0)  -->
<!DOCTYPE svg PUBLIC "-//W3C//DTD SVG 1.1//EN" "http://www.w3.org/Graphics/SVG/1.1/DTD/svg11.dtd">
<svg version="1.1" id="Layer_1" xmlns="http://www.w3.org/2000/svg" xmlns:xlink="http://www.w3.org/1999/xlink" x="0px" y="0px"
	 viewBox="0 236 1224 320" style="enable-background:new 0 236 1224 320;" xml:space="preserve">
<style type="text/css">
	.st0{fill:#FFFFFF;}
</style>
<g>
	<path class="st0" d="M255.93,286.79c-39.28,39.28-43.15,100.51-11.68,144.14l-80.55,80.55c-3.74,3.74,0.17,13.7,5.72,19.23
		c5.52,5.52,15.49,9.43,19.23,5.72l80.52-80.52l0.25,0.23c43.65,31.7,105.05,27.87,144.4-11.48c43.59-43.59,43.59-114.28,0-157.87
		C370.21,243.21,299.54,243.21,255.93,286.79z M382.65,413.49c-26.38,26.38-69.17,26.38-95.57,0c-26.38-26.38-26.38-69.17,0-95.57
		c26.4-26.38,69.17-26.38,95.57,0C409.03,344.34,409.03,387.11,382.65,413.49z"/>
	<path class="st0" d="M76.84,386.73H99.8v10.78c-7.14,6.16-16.24,10.22-26.32,10.22c-21.28,0-38.5-16.94-38.5-37.66
		c0-20.58,17.22-37.38,38.5-37.38c12.88,0,23.24,4.62,31.64,15.96l14.7-14.98c-11.06-13.02-27.16-21.56-46.34-21.56
		c-33.18,0-60.06,25.9-60.06,57.96c0,32.9,27.02,58.24,60.06,58.24c16.8,0,34.44-7,47.18-22.68v-37.38H76.84V386.73z"/>
	<polygon class="st0" points="209.38,407.31 156.74,407.31 156.74,376.51 198.68,376.51 198.68,359.01 156.74,359.01 156.74,332.27 
		209.38,332.27 209.38,314.35 135.46,314.35 135.46,426.21 209.38,426.21 	"/>
	<path class="st0" d="M525.39,407.59c-20.86,0-38.08-17.22-38.08-37.38c0-20.44,17.22-37.52,38.08-37.52
		c13.02,0,24.5,6.58,31.36,16.52l14.98-15.4c-10.64-12.88-27.16-21.7-46.34-21.7c-33.18,0-59.92,25.62-59.92,58.1
		c0,32.34,26.74,58.1,59.92,58.1c19.18,0,35.56-8.68,46.76-22.26l-15.12-15.54C549.89,400.73,539.25,407.59,525.39,407.59z"/>
	<polygon class="st0" points="606.47,314.35 584.35,314.35 584.35,426.21 660.09,426.21 660.09,405.21 606.47,405.21 	"/>
	<path class="st0" d="M723.81,314.21l-52.92,112h23.8l10.5-22.4h54.32l10.36,22.4h23.8l-52.92-112H723.81z M713.45,385.75
		l18.9-40.32l18.62,40.32H713.45z"/>
	<path class="st0" d="M847.98,361.39c-17.5-6.3-22.96-10.36-22.96-17.5c0-6.3,6.58-11.9,14.98-11.9c9.38,0,15.96,2.94,21.56,8.4
		l15.12-15.26c-9.1-8.54-20.16-13.16-37.38-13.16c-20.44,0-36.68,13.3-36.68,32.48c0,19.74,14.84,28.42,31.22,34.44
		c18.62,6.72,22.96,10.22,22.96,17.36c0,6.58-6.72,11.62-14.98,11.62c-10.08,0-18.2-2.8-27.16-10.22l-15.4,15.54
		c13.44,10.78,24.22,15.12,43.54,15.12c21.56,0,36.82-14.84,36.82-31.5C879.63,379.31,870.39,369.23,847.98,361.39z"/>
	<path class="st0" d="M936.14,361.39c-17.5-6.3-22.96-10.36-22.96-17.5c0-6.3,6.58-11.9,14.98-11.9c9.38,0,15.96,2.94,21.56,8.4
		l15.12-15.26c-9.1-8.54-20.16-13.16-37.38-13.16c-20.44,0-36.68,13.3-36.68,32.48c0,19.74,14.84,28.42,31.22,34.44
		c18.62,6.72,22.96,10.22,22.96,17.36c0,6.58-6.72,11.62-14.98,11.62c-10.08,0-18.2-2.8-27.16-10.22l-15.4,15.54
		c13.44,10.78,24.22,15.12,43.54,15.12c21.56,0,36.82-14.84,36.82-31.5C967.78,379.31,958.54,369.23,936.14,361.39z"/>
	<rect x="980.18" y="314.35" class="st0" width="21.7" height="111.86"/>
	<polygon class="st0" points="1015.88,426.21 1037.16,426.21 1037.16,376.65 1089.1,376.65 1089.1,359.01 1037.16,359.01 
		1037.16,332.97 1089.8,332.97 1089.8,314.35 1015.88,314.35 	"/>
	<polygon class="st0" points="1184.4,314.35 1154.02,361.39 1124.9,314.35 1099.7,314.35 1142.96,380.15 1142.96,426.35 
		1164.94,426.35 1164.94,380.43 1210.58,314.35 	"/>
</g>
</svg>
