<?xml version="1.0" encoding="utf-8"?>
<!-- Generator: Adobe Illustrator 17.1.0, SVG Export Plug-In . SVG Version: 6.00 Build 0)  -->
<!DOCTYPE svg PUBLIC "-//W3C//DTD SVG 1.1//EN" "http://www.w3.org/Graphics/SVG/1.1/DTD/svg11.dtd">
<svg version="1.1" id="Layer_1" xmlns="http://www.w3.org/2000/svg" xmlns:xlink="http://www.w3.org/1999/xlink" x="0px" y="0px"
	 viewBox="0 244 1224 304" style="enable-background:new 0 244 1224 304;" xml:space="preserve">
<style type="text/css">
	.st0{fill:#FFFFFF;}
</style>
<g>
	<path class="st0" d="M75.48,386.4h18.86c-1.64,5.6-4.59,9.97-8.86,13.09c-4.26,3.14-9.62,4.7-16.1,4.7
		c-8.78,0-16.23-3.2-22.33-9.59s-9.16-15.69-9.16-27.92c0-10.68,3-19.04,9.01-25.06c6.01-6.02,13.26-9.05,21.8-9.05
		c6.47,0,12.52,1.85,18.17,5.55c5.65,3.69,9.42,8.75,11.32,15.17h18.17v-38.04H98.21v8.78c-8.01-6.99-19.19-10.47-33.58-10.47
		c-10.17,0-19.59,2.16-28.26,6.47s-15.58,10.71-20.71,19.21c-5.14,8.5-7.7,18.3-7.7,29.38c0,15.96,5.17,29.13,15.52,39.51
		c10.35,10.38,25.19,15.55,44.56,15.55c11.13,0,21.2-2.18,30.16-6.55s15.79-10.35,20.49-17.95c4.7-7.6,7.05-17.89,7.05-30.88H75.48
		V386.4z"/>
	<polygon class="st0" points="226.36,388.25 205.87,388.25 205.87,404.27 172.69,404.27 172.69,376.17 199.48,376.17 199.48,358.06 
		172.69,358.06 172.69,333.35 205.87,333.35 205.87,349.21 226.36,349.21 226.36,315.26 131.95,315.26 131.95,333.35 144.8,333.35 
		144.8,404.27 131.95,404.27 131.95,422.38 226.36,422.38 	"/>
	<path class="st0" d="M517.49,396.65c-5.39,4.87-11.69,7.32-18.86,7.32c-8.78,0-16.01-3.22-21.69-9.67
		c-5.68-6.43-8.52-14.87-8.52-25.3c0-9.97,2.68-18.52,8.04-25.64s13.28-10.71,23.75-10.71c12.68,0,21.59,6.78,26.72,20.33h18.09
		v-37.73h-18.09v8.31c-8.63-6.67-19.34-10.02-32.11-10.02c-10.27,0-19.7,2.14-28.29,6.43s-15.44,10.66-20.52,19.13
		c-5.08,8.47-7.62,18.36-7.62,29.65c0,15.87,4.89,28.99,14.67,39.35c9.78,10.38,24.3,15.55,43.55,15.55
		c27.27,0,44.9-12.44,52.9-37.32l-21.1-10.05C526.52,385,522.88,391.77,517.49,396.65z"/>
	<polygon class="st0" points="626.71,404.27 595.05,404.27 595.05,333.35 610.68,333.35 610.68,315.26 551.85,315.26 551.85,333.35 
		567.17,333.35 567.17,404.27 551.85,404.27 551.85,422.38 647.57,422.38 647.57,371.15 626.71,371.15 	"/>
	<path class="st0" d="M733.81,333.35h14.4v-18.09h-69.93v18.09h14.24l-20.87,70.93h-13.25v18.09h47.44v-18.09h-14.32l5.69-18.41
		h27.81l5.08,18.41H716.4v18.09h52.68v-18.09h-12.79L733.81,333.35z M702.08,370.16l9.62-32.27l8.93,32.27H702.08z"/>
	<path class="st0" d="M833.68,364.91c-4.23-2.85-10.3-6.04-18.22-9.56c-8.22-3.63-13.19-6.43-14.87-8.41
		c-1.69-1.97-2.54-4.07-2.54-6.28c0-2.57,1.03-4.65,3.08-6.25c2.05-1.59,4.57-2.38,7.55-2.38c3.85,0,7.22,1.37,10.13,4.12
		c2.9,2.74,4.64,6.64,5.2,11.67h18.09v-32.57h-18.09v8.9c-4.67-6.66-11.28-9.97-19.79-9.97c-7.44,0-14.1,2.57-19.95,7.71
		c-5.85,5.14-8.78,12.4-8.78,21.75c0,7.76,2.21,13.94,6.64,18.52s12.84,9.84,25.23,15.82c5.87,2.85,9.89,5.39,12.1,7.63
		c2.21,2.24,3.31,5,3.31,8.28c0,3.08-1.14,5.76-3.39,8.04c-2.26,2.29-5.03,3.42-8.31,3.42c-4.21,0-7.96-1.58-11.25-4.73
		s-5.03-8.08-5.24-14.75h-18.17v36.5h18.17v-9.13c5.08,6.96,12.32,10.44,21.72,10.44c8.42,0,15.71-2.67,21.88-8.01
		c6.17-5.35,9.24-13.31,9.24-23.89c0-5.96-1.23-11.21-3.69-15.76C841.25,371.47,837.91,367.76,833.68,364.91z"/>
	<path class="st0" d="M917.38,364.91c-4.23-2.85-10.3-6.04-18.22-9.56c-8.22-3.63-13.19-6.43-14.87-8.41
		c-1.69-1.97-2.54-4.07-2.54-6.28c0-2.57,1.03-4.65,3.08-6.25c2.05-1.59,4.57-2.38,7.55-2.38c3.85,0,7.22,1.37,10.13,4.12
		c2.9,2.74,4.64,6.64,5.2,11.67h18.09v-32.57h-18.09v8.9c-4.67-6.66-11.28-9.97-19.79-9.97c-7.44,0-14.1,2.57-19.95,7.71
		c-5.85,5.14-8.78,12.4-8.78,21.75c0,7.76,2.21,13.94,6.64,18.52s12.84,9.84,25.23,15.82c5.87,2.85,9.89,5.39,12.1,7.63
		c2.21,2.24,3.31,5,3.31,8.28c0,3.08-1.14,5.76-3.39,8.04c-2.26,2.29-5.03,3.42-8.31,3.42c-4.21,0-7.96-1.58-11.25-4.73
		c-3.28-3.15-5.03-8.08-5.24-14.75h-18.17v36.5h18.17v-9.13c5.08,6.96,12.32,10.44,21.72,10.44c8.42,0,15.71-2.67,21.88-8.01
		c6.17-5.35,9.24-13.31,9.24-23.89c0-5.96-1.23-11.21-3.69-15.76C924.97,371.47,921.62,367.76,917.38,364.91z"/>
	<polygon class="st0" points="939.82,333.35 956.07,333.35 956.07,404.27 939.82,404.27 939.82,422.38 1000.34,422.38 
		1000.34,404.27 983.94,404.27 983.94,333.35 1000.34,333.35 1000.34,315.26 939.82,315.26 	"/>
	<polygon class="st0" points="1004.98,333.35 1020.29,333.35 1020.29,404.27 1004.98,404.27 1004.98,422.38 1064.66,422.38 
		1064.66,404.27 1048.18,404.27 1048.18,376.25 1071.36,376.25 1071.36,358.14 1048.18,358.14 1048.18,333.35 1080.37,333.35 
		1080.37,348.28 1100.85,348.28 1100.85,315.26 1004.98,315.26 	"/>
	<polygon class="st0" points="1168.85,315.26 1168.85,333.35 1179.9,333.35 1163.94,359.46 1148.22,333.35 1158.75,333.35 
		1158.75,315.26 1105.16,315.26 1105.16,333.35 1118.25,333.35 1147.29,375.32 1147.29,404.27 1132.27,404.27 1132.27,422.38 
		1190.11,422.38 1190.11,404.27 1175.15,404.27 1175.15,375.32 1202.88,333.35 1216.05,333.35 1216.05,315.26 	"/>
	<path class="st0" d="M265.69,305.84c-32.43,32.43-35.63,82.99-9.64,119.01l-66.51,66.51c-3.09,3.09,0.14,11.31,4.72,15.88
		c4.56,4.56,12.79,7.79,15.88,4.72l66.48-66.48l0.21,0.19c36.04,26.17,86.74,23.01,119.23-9.48c35.99-35.99,35.99-94.36,0-130.35
		C360.05,269.85,301.7,269.85,265.69,305.84z M370.32,410.45c-21.78,21.78-57.11,21.78-78.91,0c-21.78-21.78-21.78-57.11,0-78.91
		c21.8-21.78,57.11-21.78,78.91,0C392.1,353.35,392.1,388.67,370.32,410.45z"/>
</g>
</svg>
